<svg xmlns="http://www.w3.org/2000/svg" viewBox="0 0 28 33" xmlns:v="https://vecta.io/nano"><path d="M9.6.3c.2 0 .3.1.4.2a.47.47 0 0 1 .1.6c-.1.1-.1.2-.1.3l-.1.4v.1.1.1l-.1.5-.1.3c-.7 3.6.1 7.9 2.1 10.7l.5.6.4.5.4.5.4.5.4.4 1.7 2.2.5.6c.1.2.3.4.4.6l.4.5c.1.1.1.2.2.3l.3.5c.8 1.3 1.3 2.3 1.5 3.4.6 2.4.1 4.6-1.4 6.7-.1.2-.2.4-.4.4H17h-2.2c-.2 0-.4-.1-.5-.2s-.2-.4-.1-.6c.3-1.1-.1-2.8-1.1-4.6l-.2-.3c-1-1.8-2.4-3.3-3.4-3.7-.3-.1-.6-.2-.9-.2h-.3H8l-.6.1h-.2l-.8.2h-.5-.3-.1-.3H5c-.1 0-.2 0-.3-.1-.9-.1-1.8-.5-2.3-1-.7-.7-.8-1.4-.5-2.2l.1-.3.1-.2c.1-.2.1-.3 0-.4s-.1-.2-.2-.2H2a1 1 0 0 1-.6-1c0-.5.2-.9.5-1.1h0l-.1-.1c-.4-.3-.5-.6-.6-1v-.1c0-.4.2-.8.7-1.2.1 0 .1-.1.2-.2h0 0 0c-.1-.1-.2-.2-.4-.3h-.1l-.2-.1-.1-.1s-.1 0-.1-.1c-.5-.5-.8-1.2-.5-1.8.1-.3.5-.6 1-.8l.1-.1h.1 0l.8-.6c.5-.3.9-.6 1.2-.9.4-.4.7-.8 1-1.7l.1-.6.3-.9v-.1c.1-.3.3-.6.4-.9l.1-.2.2-.1.2-.3.3-.5c1-1.6 1.8-2.3 3-2.6l.1.1c-.1 0 0 0 0 0zM8.7 2l-.1.1c-.4.4-.9 1-1.4 1.9l-.1.2-.1.2c-.3.5-.5 1-.6 1.6l-.3.7C5.8 7.8 5.4 8.5 4.8 9c-.6.6-1.3 1-2 1.5l-.1.1h-.1l-.1.1s-.1 0-.1.1l-.2.1-.2.1.2.4h0 .1c.6.3 1 .6 1.1 1v.1c.1.3 0 .7-.2 1-.1.2-.4.4-.5.5h0l-.1.1h0c0 .1.2.3.5.5.2.1.3.2.3.3.2.2.3.6 0 .9l-.1.1c-.1 0-.1.1-.1.1h0l-.1.1c-.1.1-.2.2-.2.3v.1l.1.1s.1 0 .1.1l-.1.1.3.3.1.1c.3.5.3.9.1 1.4l-.2.4c-.3.6-.3.8 0 1.3.2.3.7.5 1.3.6h.2.5.3.4.4l.5-.1.9-.1h.4.4c.6 0 .9.1 1.3.2l.1.1c1.2.5 2.6 2 3.8 3.9l.2.3c.9 1.5 1.5 3.2 1.5 4.7v.3h1.2l.1-.1c2.1-3.2 1.4-6-1.9-10.6l-.2-.3c-.5-.7-1.1-1.4-1.6-2.1-.2-.2-.4-.4-.5-.7l-.6-.7-.6-.8c-.1-.1-.2-.3-.3-.4-2.4-3.2-3.3-7.8-2.5-11.8v-.1-.2l.1-.4z"/><path d="M21.3 31.3s-.1 0 0 0c-.2 0-.2-.1-.3-.1-.3-.2-.4-.6-.2-.8 2.2-3.5 1.5-6.6-1.7-11.1l-.7-1-.4-.7-.9-1.2c-.7-.9-1.4-1.8-2-2.7C12.8 10.5 12 4 13.4.7c.1-.3.5-.5.8-.3.3.1.5.5.3.8-1.2 2.9-.4 9.1 1.6 11.9l.3.4.2.3.3.5.6.7.6.7 1.7 2.2c1.6 2.2 2.7 4.1 3.2 6.1.6 2.5.3 4.7-1.2 7a.76.76 0 0 1-.4.2l-.1.1h0z"/><path d="M24.9 31.3c-.2 0-.2-.1-.3-.1-.3-.2-.4-.6-.2-.8 2.2-3.5 1.6-6.6-1.7-11.2l-.2-.3c-.5-.7-1.1-1.4-1.6-2.1l-.5-.7-.6-.7-.6-.8c-.1-.1-.2-.3-.3-.4-2.2-3.1-3.1-7.7-2.3-11.7l.1-.5.1-.4.1-.3c0-.1.1-.2.2-.5s.5-.5.8-.4.5.4.4.7v.1c0 .1-.1.2-.1.4l-.2.1h0v.1.1l-.2.8c-.7 3.6.1 7.9 2.1 10.7l.5.6.4.5.4.5c.1.1.1.2.2.2l.4.4.2.2 1.7 2.2.4.6.4.6c2.9 4.3 3.5 7.7 1.3 11.4l-.2.2-.1.1c-.2.1-.3.1-.4.1l-.2.3h0zm-2.2-17.5c-.2 0-.3-.1-.4-.3-1.2-1.7-2.2-4-2.7-6.1-.6-2.5-.5-4.8.4-6.8.2-.3.5-.4.8-.3.4.1.5.6.3.9-1.5 3-.3 8.1 2.2 11.6.2.3.1.6-.1.8l-.1.1H23h0-.1l-.2.1h0z"/></svg>