<?xml version="1.0" encoding="UTF-8"?>
<svg id="Layer_1" data-name="Layer 1" xmlns="http://www.w3.org/2000/svg" viewBox="0 0 28.1 27.42">
  <path d="M4.16,1.58c-.41,.48-.72,1.02-.92,1.63l-.02,.07-.21,.07c-.61,.22-1.17,.61-1.67,1.12-.87,.89-1.33,2.04-1.33,3.32s.46,2.43,1.33,3.32l.16,.16c1.21,1.13,2.93,1.5,4.48,1.03l.15-.05,9.98,8.93-.04,.13c-.46,1.63-.04,3.45,1.17,4.68,.89,.91,2.03,1.42,3.27,1.42s2.43-.5,3.29-1.44l.18-.19c.4-.46,.71-1.01,.91-1.61l.02-.07,.21-.07c.61-.22,1.17-.61,1.67-1.12,.87-.88,1.33-2.04,1.33-3.32s-.46-2.43-1.33-3.32l-.16-.16c-1.21-1.13-2.93-1.5-4.48-1.03l-.15,.05L12,6.2l.04-.13c.46-1.63,.04-3.45-1.17-4.68C9.08-.46,6.14-.46,4.34,1.38l-.18,.2Zm5.65,.85c.94,.96,1.19,2.45,.63,3.67l-.23,.5,11.49,10.28,.45-.21c1.18-.56,2.62-.31,3.55,.64,.59,.6,.9,1.38,.9,2.27s-.31,1.67-.9,2.27c-.47,.48-1,.78-1.53,.87l-.5,.08-.11,.5c-.15,.65-.43,1.19-.86,1.64-.59,.65-1.33,.97-2.2,.97-.82,0-1.58-.34-2.2-.97-.94-.96-1.19-2.45-.63-3.67l.23-.5L6.4,10.49l-.45,.21c-1.18,.56-2.62,.31-3.55-.65-.59-.6-.9-1.38-.9-2.27s.31-1.67,.9-2.27c.47-.48,1-.78,1.53-.87l.5-.08,.11-.5c.15-.65,.43-1.19,.86-1.64,1.21-1.24,3.18-1.24,4.39,0Z"/>
</svg>
