<svg xmlns="http://www.w3.org/2000/svg" viewBox="0 0 27 31" xmlns:v="https://vecta.io/nano"><path d="M20 19.9c.5 0 1.1-.6 1.1-1s-.6-1-1-1H20 2.9c-1.2 0-2.6-1.2-2.6-2.5s1.3-2.5 2.5-2.5h.1 20.7c.5 0 1.1-.6 1.1-1s-.6-1-1-1h-.1H9.8c-1.2 0-2.6-1.2-2.6-2.6 0-1.3 1.3-2.4 2.5-2.5h.1 5c1.2 0 2.3-1.4 2.4-3.2v-.2V0h1.5v2.4c0 2.5-1.6 4.7-3.7 4.9h-.2-5c-.5 0-1.1.6-1.1 1s.6 1 1 1h.1 13.7c1.2 0 2.6 1.2 2.6 2.6 0 1.3-1.3 2.4-2.5 2.5h-.1H2.9c-.5 0-1.1.6-1.1 1.1 0 .4.6.9 1 1h.1H20c1.2 0 2.6 1.2 2.6 2.6 0 1.3-1.3 2.4-2.5 2.5H20 7c-.5 0-1.1.6-1.1 1.1 0 .4.6.9 1 1H7h5.1c2.1 0 3.8 2.1 3.9 4.6v.2 2.4h-1.5v-2.4c0-1.8-1.1-3.3-2.3-3.4h-.1H7c-1.2 0-2.6-1.2-2.6-2.5s1.3-2.5 2.5-2.5H7h13z"/></svg>