<svg xmlns="http://www.w3.org/2000/svg" viewBox="0 0 34 17" xmlns:v="https://vecta.io/nano"><path d="M16.8.3c-4.5 0-8.5 1.4-12 3.8a21.27 21.27 0 0 0-3.2 2.6c-.3.2-.5.5-.7.7l-.3.4-.1.2c-.2.3-.2.7 0 .9l.1.1.2.2c.2.3.5.6.8.9a21.27 21.27 0 0 0 3.2 2.6c3.5 2.4 7.5 3.8 12 3.8s8.5-1.4 12.1-3.8c1.2-.8 2.3-1.7 3.3-2.6l.7-.7.1-.3.2-.3a.91.91 0 0 0 0-1l-.2-.1v-.1c-.2-.3-.5-.6-.9-.9-.9-.9-2-1.8-3.3-2.6-3.5-2.4-7.5-3.8-12-3.8zm0 1.5c4.2 0 7.9 1.3 11.2 3.6 1.2.8 2.2 1.6 3.1 2.4l.3.3.3.3-.2.2-.3.3-.1.1c-.9.8-1.9 1.7-3.1 2.4-3.3 2.2-7.1 3.6-11.2 3.6-4.2 0-7.9-1.3-11.2-3.5-1.1-.8-2.1-1.7-3-2.5l-.2-.2-.3-.3-.1-.1.2-.2.4-.4c.8-.8 1.8-1.7 3-2.4 3.3-2.3 7-3.6 11.2-3.6zm0 1.8c-2.7 0-4.8 2.1-4.8 4.8 0 2.6 2.2 4.8 4.8 4.8s4.8-2.1 4.8-4.8c.1-2.7-2.1-4.8-4.8-4.8zm0 1.5a3.33 3.33 0 0 1 3.3 3.3 3.33 3.33 0 0 1-3.3 3.3 3.33 3.33 0 0 1-3.3-3.3 3.33 3.33 0 0 1 3.3-3.3z"/></svg>