<svg xmlns="http://www.w3.org/2000/svg" viewBox="0 0 24 24" xmlns:v="https://vecta.io/nano"><path d="M8.5.3h-.1c-1 .1-1.7.9-1.7 1.8v4.5H2.2c-1 0-1.9.8-1.9 1.9v6.9.1c.1.9.9 1.7 1.8 1.7h4.5v4.5a1.97 1.97 0 0 0 1.9 1.9h6.9.1c.9-.1 1.7-.9 1.7-1.8v-4.5h4.5c1 0 1.9-.8 1.9-1.9V8.5v-.1c-.1-.9-.9-1.7-1.8-1.7h-4.5V2.2A1.97 1.97 0 0 0 15.4.3H8.5zm0 1.5h6.9c.2 0 .4.2.4.4v6h6c.2 0 .4.2.4.4v6.9c0 .2-.2.4-.4.4h-6v6c0 .2-.2.4-.4.4H8.5c-.2 0-.4-.2-.4-.4v-6h-6c-.2 0-.4-.2-.4-.4v-7c0-.2.2-.4.4-.4h6v-6c.1-.2.2-.3.4-.3z"/></svg>