<svg xmlns="http://www.w3.org/2000/svg" viewBox="0 0 29 26" xmlns:v="https://vecta.io/nano"><path d="M7.9 6.8c.3-.4.9-.5 1.2-.1l.1.1 4.9 7.9 1.9-3.2c.1-.2.3-.3.5-.4h.1 10.7v1.5H17.1l-2.3 3.9c-.3.4-.9.5-1.2.1l-.1-.1-5-7.9-2.3 3.7a.55.55 0 0 1-.5.3h-.1-4v-1.5h3.5l2.8-4.3z"/><path d="M4.4 1.5C2 3 .6 5 .3 7.4c-.3 2 .2 4.2 1.1 6.3l.8 1.6.2.4.3.4.3.3.1.1c.3.5.7 1 1.1 1.5a26.7 26.7 0 0 0 4.9 4.4c1.5 1.1 3.2 2.1 5 2.9.2.1.4.1.6 0 1.8-.9 3.5-1.8 5-2.9a26.7 26.7 0 0 0 4.9-4.4c.4-.4.7-.8 1-1.2l.3-.4.2-.3.2-.3.2-.3.1-.1c.3-.5.6-1 .8-1.6.9-2.1 1.4-4.3 1.1-6.4-.2-2.4-1.6-4.4-4-5.9-2.8-1.7-5.9-1.4-8.7 0l-.2.1c-.4.2-.7.4-1 .6l-.1.1-.1-.1c-.4-.2-.8-.5-1.3-.7-2.8-1.5-5.8-1.8-8.7 0zm8 1.3c.4.2.8.5 1.2.7l.1.1.2.1.1.1a.91.91 0 0 0 1 0l.2-.1.2-.1c.3-.2.7-.5 1.2-.7 2.4-1.2 4.9-1.4 7.2 0 2.1 1.3 3.1 2.9 3.4 4.8.2 1.7-.2 3.7-1 5.6-.2.5-.5 1-.8 1.5l-.1.2h-.2l-.2.3-.2.2-.1.1-1.1 1.4c-1.2 1.4-2.8 2.8-4.6 4.2l-.6.4c-1.1.8-2.3 1.5-3.6 2.1l-.3.2.3.2c-1.7-.8-3.3-1.7-4.8-2.8C8 20 6.5 18.6 5.3 17.1L4.4 16l-.3-.4-.1-.4-.2-.3-.2-.3c-.3-.4-.5-.9-.7-1.5-.8-1.9-1.2-3.8-1-5.5.2-1.9 1.1-3.5 3-4.7l.3-.2c2.3-1.4 4.8-1.2 7.2.1z"/></svg>