<svg xmlns="http://www.w3.org/2000/svg" viewBox="0 0 33 31" xmlns:v="https://vecta.io/nano"><path d="M19.6 15.2c1.8-1.9 4.8-1.9 6.6 0 1.2 1.2 1.6 3.1 1.2 4.7v.1l4.7 4.2-1 1.1-5.5-4.9.2-.5c.6-1.2.3-2.7-.6-3.7a2.97 2.97 0 0 0-4.4 0c-.4.4-.7.9-.8 1.4l-.1.2-.1.5-.5.1c-.5.1-1.1.4-1.6.9-.6.6-.9 1.4-.9 2.3s.3 1.7.9 2.3c.9.9 2.2 1.2 3.4.7l.2-.1.4-.2 5.1 4.5-1 1.1-4.4-3.9-.2.1c-1.6.5-3.3.1-4.5-1l-.1-.1c-.9-.9-1.3-2.1-1.3-3.3s.5-2.5 1.3-3.3c.5-.5 1.1-.9 1.7-1.1l.2-.1v-.1c.2-.6.5-1.2.9-1.6l.2-.3zM7.1 1.4l4.4 3.9.2-.1c1.6-.5 3.3-.1 4.5 1l.2.2c.9.9 1.3 2.1 1.3 3.3s-.5 2.5-1.3 3.3c-.5.5-1.1.9-1.7 1.1l-.2.1v.1c-.2.6-.5 1.2-.9 1.6l-.2.2c-1.8 1.9-4.8 1.9-6.6 0C5.5 15 5 13.2 5.5 11.6v-.1L.8 7.3l1-1.1L7.3 11l-.2.5c-.6 1.2-.3 2.7.6 3.7a2.97 2.97 0 0 0 4.4 0c.4-.4.7-.9.8-1.4l.1-.2.1-.5.5-.1c.5-.1 1.1-.4 1.6-.9.6-.6.9-1.4.9-2.3s-.3-1.7-.9-2.3c-.9-.9-2.2-1.2-3.4-.7l-.2.1-.4.2-5.1-4.6 1-1.1z"/></svg>