<svg xmlns="http://www.w3.org/2000/svg" viewBox="0 0 32 29" xmlns:v="https://vecta.io/nano"><path d="M9.1 14.1l-.1-.2-.2-.4-.1-.5c-.1-.3-.2-.5-.2-.8-.1-.3-.1-.6-.1-.9v-.2-.1-.2c.1-.3.2-.7.5-.9l.1-.1V7C9 3.8 11.9.5 15.7.4h.2c3.2 0 5.1 1.3 5.6 2.9v.2h0c.8.7 1.2 1.7 1.3 3.2V7v2.8l.1.1c.2.2.3.5.4.8v.2.2.2c0 .8-.4 2.2-.7 2.8V14c-.1.2-.2.3-.4.5l-.1.1h0c0 1.1-.7 2.4-1.7 3.4l-.1.1v.2c.3.9.8 1.8 1.3 2.1l.1.1 5.4 1.7c1.6.5 2.8 1.6 3.3 3.2l.1.2.7 2.8-1.5.4-.5-2.8c-.3-1.1-1.1-1.9-2.2-2.3l-.2-.1-5.5-1.8c-1.3-.5-2.2-2.2-2.5-3.7v-.2l-.1-.4.3-.3c.9-.8 1.6-1.9 1.6-2.7 0-.3.1-.5.1-.7 0-.1.1-.2.1-.3v-.1l.2-.3h.1 0s.1-.1.1-.2l.1-.2v-.1l.1-.3.1-.3c.1-.3.1-.6.1-.8v-.1-.1h0c0-.1-.1-.2-.1-.2l-.1-.1-.3-.2V6.9c0-1.3-.3-2-.8-2.4l-.1-.1-.3-.2v-.3c-.1-1.1-1.4-2.1-4.2-2.1-2.9 0-5.3 2.5-5.5 5V7v3.5l-.3.2c.1.1 0 .2-.1.3h0v.1a1.76 1.76 0 0 0 .1.6v.2c.1.2.1.4.2.7l.2.4.1.3h.1c.4.2.6.6.6 1.2v.1c0 .8.6 1.7 1.4 2.5l.2.2.3.3-.1.4c-.2 1.5-1.1 3.2-2.3 3.9l-.2.1-5.5 1.7c-1.1.3-2 1.2-2.3 2.2l-.1.1-.7 2.8-1.5-.4.7-2.8c.4-1.5 1.6-2.8 3.1-3.4l.2-.1 5.5-1.7c.6-.2 1.2-1.2 1.4-2.2V18l-.1-.1c-1-.9-1.6-2.1-1.7-3.2v-.3h0l-.3-.3h0z"/></svg>