<svg xmlns="http://www.w3.org/2000/svg" viewBox="0 0 35 20" xmlns:v="https://vecta.io/nano"><path d="M25.2 11.6c.9 0 1.7.3 2.4.8.4.3.7.6.9.8.3.3.2.8-.1 1.1s-.8.2-1.1-.1c-.1-.1-.3-.3-.6-.5-.5-.3-1-.5-1.6-.5s-1.1.2-1.6.5c-.3.2-.5.4-.6.5-.3.3-.7.4-1.1.1s-.4-.7-.1-1.1c.2-.2.5-.5.9-.8.9-.5 1.7-.8 2.6-.8zm-1.8-4.9c.4 0 .8.3.8.8 0 .4-.3.7-.6.7h-.1-2.7c-.4 0-.8-.3-.8-.8 0-.4.3-.7.6-.7h.1 2.7zm6.5 0c.4 0 .8.3.8.8 0 .4-.3.7-.6.7H30h-2.7c-.4 0-.8-.3-.8-.8 0-.4.3-.7.6-.7h.1 2.7zM9.7.3C4.5.3.3 4.5.3 9.8s4.2 9.5 9.4 9.5 9.4-4.2 9.4-9.5S14.9.3 9.7.3zm0 1.5c4.4 0 7.9 3.6 7.9 8s-3.5 8-7.9 8-7.9-3.6-7.9-8 3.5-8 7.9-8z"/><path d="M25.2.3c-3.6 0-6.9 2.1-8.5 5.3l-.2.3.2.3c.5 1.1.8 2.3.8 3.5s-.3 2.4-.8 3.5l-.2.3.2.3c1.6 3.2 4.9 5.3 8.5 5.3 5.2 0 9.4-4.2 9.4-9.5.1-5.1-4.1-9.3-9.4-9.3zm0 1.5c4.4 0 8 3.6 7.9 8 0 4.4-3.5 8-7.9 8h-.3c-2.7-.1-5.2-1.6-6.6-4l-.1-.2.1-.3c.5-1.1.7-2.3.7-3.5v-.4c0-1.1-.3-2.2-.7-3.2l-.1-.3.1-.2c1.5-2.4 4.1-3.9 6.9-3.9zM11.8 11.9c.3-.3.7-.4 1.1-.1.3.3.4.7.1 1.1-.2.2-.5.5-.9.8-.7.5-1.5.8-2.4.8s-1.7-.3-2.4-.8c-.4-.3-.7-.6-.9-.8-.3-.3-.2-.8.1-1.1s.8-.2 1.1.1c.1.1.3.3.6.5.5.3 1 .5 1.6.5s1.1-.2 1.6-.5c.2-.2.3-.4.4-.5zm-4-5.2c.4 0 .8.3.8.8 0 .4-.3.7-.6.7h-.1-2.8c-.4 0-.7-.3-.7-.8 0-.4.3-.7.6-.7h.1 2.7zm6.5 0c.4 0 .8.3.8.8 0 .4-.3.7-.6.7h-.1-2.7c-.4 0-.8-.3-.8-.8 0-.4.3-.7.6-.7h.1 2.7z"/></svg>