<svg version="1.1" xmlns="http://www.w3.org/2000/svg" xmlns:xlink="http://www.w3.org/1999/xlink" x="0px" y="0px" viewBox="0 0 31 33" style="enable-background:new 0 0 31 33;" xml:space="preserve" width="31" height="33"><style type="text/css">
	.st0{fill:#231F20;}
</style><g id="Layer_1"/><g id="Layer_4"><g><g><g><path class="st0" d="M22.95 19.67c-0.13 0 -0.26 0 -0.39 -0.01c-0.27 -0.01 -0.48 -0.25 -0.46 -0.52c0.01 -0.27 0.26 -0.48 0.52 -0.46c2.27 0.12 3.71 -1.02 4.53 -2.01c1.52 -1.84 2.15 -4.67 1.56 -7.05c-0.07 -0.26 0.1 -0.53 0.36 -0.59c0.26 -0.06 0.53 0.1 0.59 0.36c0.66 2.67 -0.05 5.85 -1.76 7.91C26.61 18.85 24.9 19.67 22.95 19.67z"/></g><g><path class="st0" d="M15.51 31.81c-0.27 0 -0.49 -0.22 -0.49 -0.49V1.54c0 -0.27 0.22 -0.49 0.49 -0.49S16 1.27 16 1.54v29.78C16 31.59 15.78 31.81 15.51 31.81z"/></g><g><path class="st0" d="M18.21 32.49c-0.89 0 -1.81 -0.21 -2.71 -0.63c-3.06 1.25 -5.49 0.45 -7.06 -2.3c-3.27 -0.29 -4.85 -2.13 -4.84 -5.61c-2.16 -1.58 -2.69 -3.21 -2.74 -4.31c-0.06 -1.25 0.45 -2.46 1.44 -3.44c-1.83 -3.87 -1.36 -6.54 -0.63 -8.11C2.53 6.24 4.23 4.9 6.48 4.32c2.01 -3.47 5.05 -4.57 9.04 -3.29c3.9 -1.18 7.56 0.26 9.64 3.79c1.82 0.38 3.25 1.54 4.05 3.27c1.07 2.34 0.89 5.47 -0.43 7.91c0.99 1.1 1.49 2.5 1.38 3.9c-0.12 1.5 -0.92 2.88 -2.26 3.91c0.14 1.7 -0.38 3.2 -1.49 4.25c-0.9 0.86 -2.1 1.3 -3.27 1.21c-0.82 1.51 -1.92 2.51 -3.28 2.96C19.32 32.4 18.77 32.49 18.21 32.49zM15.53 30.78l0.21 0.1c1.29 0.66 2.64 0.8 3.8 0.42c1.19 -0.4 2.16 -1.33 2.87 -2.78l0.16 -0.33l0.36 0.06c0.98 0.17 2.02 -0.17 2.79 -0.91c0.93 -0.89 1.34 -2.21 1.16 -3.71l-0.04 -0.29l0.24 -0.17c1.24 -0.88 1.98 -2.07 2.08 -3.36c0.1 -1.22 -0.4 -2.46 -1.35 -3.4l-0.28 -0.27l0.2 -0.33c1.33 -2.22 1.56 -5.16 0.57 -7.32c-0.49 -1.06 -1.5 -2.4 -3.55 -2.76L24.53 5.7l-0.11 -0.2c-1.87 -3.34 -5.15 -4.64 -8.75 -3.49l-0.15 0.05l-0.15 -0.05c-3.67 -1.23 -6.33 -0.26 -8.13 2.97l-0.1 0.19L6.91 5.22C4.86 5.7 3.31 6.87 2.55 8.5c-0.95 2.04 -0.68 4.66 0.78 7.59l0.17 0.34l-0.29 0.25c-0.95 0.81 -1.44 1.84 -1.38 2.9c0.07 1.31 0.94 2.59 2.54 3.7l0.22 0.15L4.57 23.7c-0.08 3.2 1.21 4.71 4.19 4.89l0.27 0.02l0.13 0.24c1.36 2.56 3.37 3.21 6.15 2.01L15.53 30.78z"/></g><g><path class="st0" d="M2.01 22.12c-0.16 0 -0.32 -0.08 -0.41 -0.23c-0.92 -1.45 -1.01 -3.03 -0.25 -4.45c1.01 -1.89 3.39 -3.17 6.06 -3.24c0.26 -0.02 0.5 0.21 0.5 0.48c0.01 0.27 -0.21 0.5 -0.48 0.5c-2.33 0.07 -4.38 1.13 -5.23 2.72c-0.59 1.11 -0.52 2.31 0.21 3.46c0.14 0.23 0.08 0.53 -0.15 0.68C2.19 22.09 2.1 22.12 2.01 22.12z"/></g><g><path class="st0" d="M23.42 29.28c-0.34 0 -0.69 -0.04 -1.02 -0.14c-1.85 -0.5 -3.06 -2.24 -3.32 -4.75c-0.03 -0.27 0.17 -0.51 0.44 -0.54c0.27 -0.03 0.51 0.17 0.54 0.44c0.22 2.09 1.17 3.52 2.6 3.91c1.25 0.34 2.65 -0.19 3.49 -1.32c0.16 -0.22 0.47 -0.26 0.69 -0.1c0.22 0.16 0.26 0.47 0.1 0.69C26.07 28.62 24.75 29.28 23.42 29.28z"/></g></g><g><path class="st0" d="M23.49 12.44c-1.08 0 -1.97 -0.31 -2.66 -0.92c-1.13 -1 -1.62 -2.82 -1.33 -4.99c0.04 -0.27 0.3 -0.46 0.55 -0.42c0.27 0.04 0.46 0.28 0.42 0.55c-0.25 1.84 0.12 3.35 1.01 4.13c0.81 0.71 2.04 0.86 3.67 0.44c0.26 -0.07 0.53 0.09 0.6 0.35c0.07 0.26 -0.09 0.53 -0.35 0.6C24.71 12.35 24.07 12.44 23.49 12.44z"/></g><g><path class="st0" d="M6.69 11.21c-0.26 0 -0.52 -0.03 -0.78 -0.08c-0.27 -0.05 -0.44 -0.31 -0.38 -0.58c0.05 -0.27 0.31 -0.44 0.58 -0.38c0.84 0.17 1.65 -0.03 2.35 -0.57c0.97 -0.75 1.64 -2.09 1.72 -3.43c0.02 -0.27 0.25 -0.47 0.52 -0.46c0.27 0.02 0.48 0.25 0.46 0.52c-0.09 1.61 -0.91 3.24 -2.09 4.15C8.34 10.93 7.53 11.21 6.69 11.21z"/></g><g><path class="st0" d="M8.95 24.65c-0.02 0 -0.05 0 -0.07 0c-0.27 -0.04 -0.45 -0.29 -0.42 -0.55c0.2 -1.43 0.05 -2.43 -0.45 -3.06c-0.44 -0.55 -1.19 -0.87 -2.31 -0.97c-0.27 -0.03 -0.47 -0.26 -0.44 -0.53c0.02 -0.27 0.27 -0.46 0.53 -0.44c1.39 0.13 2.37 0.57 2.98 1.34c0.68 0.86 0.89 2.1 0.65 3.81C9.4 24.48 9.19 24.65 8.95 24.65z"/></g></g></g></svg>