<svg xmlns="http://www.w3.org/2000/svg" viewBox="0 0 27 29" fill="#010101" xmlns:v="https://vecta.io/nano"><path d="M17.6 5.2c.6 1.4.9 2.9.9 4.5 0 6.1-4.8 11-10.6 11a10.21 10.21 0 0 1-3.8-.7c-.6-.2-1.2.4-.9 1 1.9 4.5 6.2 7.4 11.1 7.4 6.7 0 12.1-5.6 12.1-12.5 0-5.2-3.1-9.9-7.8-11.7-.6-.2-1.3.4-1 1zm2 1.2l.2.1a11.18 11.18 0 0 1 5.1 9.4c0 6.1-4.8 11-10.6 11l-.3.1c-3.5-.1-6.7-2-8.5-4.9l-.1-.1.4.1c.7.1 1.4.2 2.1.2 6.7 0 12.1-5.6 12.1-12.5 0-1.2-.1-2.3-.4-3.4h0zm-8.1 2.9c.6 0 .9.6.6 1.1l-.1.1-4.5 5.8h3.9c.4 0 .7.3.7.6v.1c0 .4-.3.7-.6.7h-.1H6c-.6 0-.9-.6-.6-1.1l.1-.1 4.5-5.8H5.5c-.5.1-.8-.2-.8-.6V10c0-.4.3-.7.6-.7h.1 6.1zM4.9 1.8c.6 0 .9.6.6 1.1V3L2.9 6.3h2c.4 0 .7.3.7.6V7c0 .4-.3.7-.6.7h-.1-3.5c-.6 0-.9-.6-.6-1.1l.1-.1 2.6-3.3-2.5.1c-.4 0-.7-.3-.7-.6v-.1c0-.4.3-.7.6-.7H1h3.9zM10 .3c.6 0 .9.6.7 1.1l-.1.1-1.5 2h.9c.4 0 .7.3.7.6v.1c0 .4-.3.7-.6.7L10 5H7.6c-.6 0-1-.7-.7-1.2H7l1.5-2H7.3c-.3 0-.7-.3-.7-.7V1c0-.4.3-.7.6-.7h.1H10z"/></svg>