<svg xmlns="http://www.w3.org/2000/svg" viewBox="0 0 29 29" xmlns:v="https://vecta.io/nano"><path d="M24.385 20.619c.4.1.7.4.7.8 0 .3-.2.5-.4.6h0l.1.1c.3.4.4.8.4 1.4 0 1.4-.9 1.9-3 2.3l-.5.1-3 1c-.4.2-.8.4-1 .6l-.1.1-.1.1h0c-.1.3-.3.5-.6.5h-.1c-.4 0-.8-.3-.8-.8 0-1.2 2.7-2.5 5-2.9h.7.2l.3-.1.3-.1c.8-.2 1-.4 1-.7 0-.2 0-.3-.1-.5l-.2-.2a1.69 1.69 0 0 1-.3-1c0-.6.3-1 .7-1.2.2-.1.3-.1.5-.1h.3z"/><path d="M13.385 1.219c6.5 0 11 4.7 11 8.5 0 .7 0 1.3-.1 1.8l-.1.5-.1.3.3.4c.2.3.4.7.6 1l.5.9.3.5.2.4.2.4.2.4c.2.5.3.9.3 1.1 0 .7-.5 1.1-1.2 1.5l-.2.1-.2.1.3.9c.1.2 0 .5-.1.7l-.1.1-.6.6c-.3.3-.8.3-1.1 0s-.3-.7-.1-1l.1-.1.2-.2-.4-1.2c-.1-.4.1-.8.5-1h.1c.2 0 .4-.1.7-.2h.1l.2-.1h.1v-.1-.1l-.1-.2-.2-.4v-.5l-.3-.5-.4-.7c-.2-.3-.4-.7-.6-1l-.7-1.2v-.6-.2-.2-.2c.1-.6.1-1.2.1-2 0-1-.8-2.7-2.1-4.1-1.8-1.8-4.2-2.9-7.4-2.9-5.9 0-9.5 4-9.5 8.1 0 .5.1 1 .2 1.5.3 1.3.9 2.6 1.8 4.2l1.6 2.8.3.3c.5 1 .8 1.7.8 2.3 0 .7-.3 1.6-.9 2.6-.3.4-.6.9-.9 1.4-.3.3-.5.7-.8 1l-.6.6-.3.3-.1.2c-.3.3-.8.3-1.1 0s-.3-.7-.1-1l.1-.1.2-.2.3-.3c.4-.4.7-.9 1.1-1.4.3-.4.6-.9.9-1.3.5-.8.7-1.4.7-1.8 0-.2-.1-.6-.3-1l-.2-.3-.2-.4-1.5-2.5c-1.1-2-1.8-3.5-2.2-5-.1-.6-.2-1.3-.2-1.9 0-4.9 4.3-9.6 11-9.6zm2.3 5c.2-.7 1.2-.7 1.4-.1v.1l.9 4.2v-.1c.1-.2.3-.3.5-.4h.1 1.8c.4 0 .8.3.8.8 0 .4-.3.7-.6.7h-.1-1.3l-.7 1.7c-.3.6-1.2.6-1.4 0v-.1l-.7-3.5-1.5 5.7c-.2.9-1.2.9-1.5.3v-.1l-1.2-4.2-.6 2c-.2.6-.9.7-1.3.3l-.1-.1-1.1-1.9h-2.3c-.4 0-.7-.3-.7-.6v-.1c0-.4.3-.7.6-.7h.1 2.7c.2 0 .4.1.6.3l.1.1.5.7.9-2.8c.2-.7 1.1-.7 1.4-.1v.1l1.1 3.9 1.6-6.1z"/></svg>