<svg xmlns="http://www.w3.org/2000/svg" viewBox="0 0 30.08 28.35"><path d="M14.74 0h.32l.02.01c.3-.01.67 0 1.1.06l.26.04c.81.13 1.6.39 2.35.81 1.68.93 2.9 2.53 3.44 4.86.19.81.35 1.56.5 2.33l.2 1.11.27 1.59c.03.19.07.38.1.54l.1.47c.15.66.32 1.13.58 1.6.3.55.72 1.11 1.35 1.76l.22.22.25.25-.04.36c-.06.57-.5 1.29-1.54 1.93-.94.58-2.27 1.02-4.06 1.26h-.12v1.42l7.81 2.46c.29.1.67.32 1.04.7l.14.15c.82.92 1.22 2.28 1 4.1l-.04.31-1.48-.23c.24-1.54-.03-2.54-.59-3.17-.2-.23-.39-.36-.49-.4l-.04-.02-8.84-2.79v-3.85l.68-.07c1.97-.2 3.34-.6 4.21-1.14.28-.17.48-.34.62-.51l.06-.08-.11-.12c-.52-.57-.92-1.09-1.22-1.61l-.13-.23c-.39-.72-.61-1.41-.82-2.46l-.15-.85-.32-1.88c-.17-.95-.35-1.85-.59-2.83-.45-1.92-1.4-3.16-2.71-3.89-.59-.33-1.23-.53-1.87-.64-.36-.06-.67-.08-.91-.08H14.93c-.28-.02-.65 0-1.07.05-.61.09-1.22.27-1.77.55-1.37.7-2.33 1.96-2.73 3.98-.13.66-.25 1.29-.36 1.95l-.43 2.67c-.27 1.6-.53 2.5-1.06 3.44-.33.59-.77 1.17-1.38 1.82l-.13.13.06.08c.11.13.25.26.44.4l.15.1c.8.52 2.07.91 3.9 1.11l.35.03.68.06v3.86l-8.8 2.77c-.11.04-.33.18-.56.45-.53.6-.8 1.53-.63 2.9l.04.26-1.48.23c-.31-1.94.08-3.4.95-4.38.36-.41.74-.67 1.07-.82l.14-.06 7.79-2.46v-1.4h-.08c-1.72-.23-3.03-.63-3.97-1.18l-.2-.12c-.92-.59-1.35-1.26-1.45-1.8L4.38 16l-.04-.36.25-.25c.78-.78 1.28-1.4 1.62-2 .34-.6.55-1.2.74-2.16l.1-.51.37-2.27c.15-.93.3-1.77.48-2.67.49-2.47 1.74-4.12 3.51-5.03 1.12-.56 2.31-.77 3.33-.75z"/></svg>