<svg xmlns="http://www.w3.org/2000/svg" viewBox="0 0 710 710"><defs><style>.cls-1{fill:#fff;}.cls-2{fill:#333;}.cls-3{fill:#ffcd00;}</style></defs><g id="Layer_2" data-name="Layer 2"><g id="save_icon" data-name="save icon"><path class="cls-1" d="M355,710A355,355,0,0,1,104,104,355,355,0,1,1,606,606,352.68,352.68,0,0,1,355,710Z"/><path class="cls-2" d="M355,75A279.08,279.08,0,1,1,246,97,278.26,278.26,0,0,1,355,75m0-8C195.94,67,67,195.94,67,355S195.94,643,355,643,643,514.06,643,355,514.06,67,355,67Z"/><path class="cls-3" d="M339.21,513a4,4,0,0,1-4-4V485.42c-33.2-4.11-63.47-17.91-90-41.05a4,4,0,0,1-.44-5.58l27.11-32.32a4,4,0,0,1,2.75-1.41l.32,0a4,4,0,0,1,2.62,1c18.67,16.22,38,26.48,57.64,30.54V372.44c-26.93-6.72-47.12-15.61-60-26.45-13.89-11.63-20.94-29-20.94-51.53s8-41.18,23.79-55.52c14.81-13.46,34-21.22,57.19-23.07V201a4,4,0,0,1,4-4H363a4,4,0,0,1,4,4v15.27c26.48,2.58,51.87,12.07,75.52,28.23a4,4,0,0,1,1,5.61l-24.15,34.17a4,4,0,0,1-2.59,1.64,5.16,5.16,0,0,1-.67.05,4,4,0,0,1-2.33-.74A116.7,116.7,0,0,0,367,265.18v61.7c28,6.76,49,16,62.48,27.49,14.24,12.13,21.46,29.84,21.46,52.63s-8.2,41.58-24.37,55.92C411.35,476.41,391.32,484.15,367,486v23a4,4,0,0,1-4,4ZM367,437.91c9-1.48,16.27-4.47,21.69-8.93,6-4.94,8.94-11,8.94-18.45s-2.26-13.36-6.9-17.69c-4.35-4-12.32-8-23.73-11.77Zm-31.77-174c-8.18,1.3-14.74,4.09-19.54,8.33a22.57,22.57,0,0,0-8.12,17.8c0,7.24,2,12.74,6.22,16.82,3.86,3.77,11.06,7.54,21.44,11.22Z"/><path class="cls-2" d="M363,201V220q40.86,3,77.26,27.86L416.1,282A119.92,119.92,0,0,0,363,260.47V330.3h1.11q42.72,10,62.78,27.11T446.92,407q0,32.5-23,52.93T363,482.22V509H339.21V481.85q-50.9-5.21-91.38-40.49L275,409q31.2,27.12,64.26,32.32V369.3q-42-10-61.47-26.37t-19.51-48.47q0-32.13,22.48-52.56t58.5-22.29V201H363M339.21,323.61V259.35q-16.72,1.5-26.19,9.85a26.62,26.62,0,0,0-9.47,20.8q0,12.45,7.43,19.68t28.23,13.93M363,442.47q17.83-1.85,28.23-10.4t10.4-21.54q0-13-8.17-20.61T363,375.62v66.85M363,193H339.21a8,8,0,0,0-8,8v11.18c-22.43,2.44-41.2,10.41-55.88,23.76-16.65,15.13-25.1,34.81-25.1,58.48s7.53,42.17,22.37,54.6c13.09,11,32.3,19.67,58.61,26.49v56c-17.29-4.52-34.41-14.09-51-28.51a8,8,0,0,0-5.25-2l-.63,0a8,8,0,0,0-5.5,2.83l-27.11,32.32a8,8,0,0,0,.87,11.17c26.21,22.86,56,36.81,88.63,41.53v20a8,8,0,0,0,8,8H363a8,8,0,0,0,8-8V489.64c23.58-2.38,43.14-10.34,58.22-23.72,17.07-15.14,25.72-35,25.72-58.92s-7.69-42.75-22.86-55.68c-13.67-11.63-33.68-20.68-61.08-27.58V270.09a113.59,113.59,0,0,1,40.48,18.44A8,8,0,0,0,416.1,290a8.75,8.75,0,0,0,1.34-.11,8,8,0,0,0,5.19-3.27l24.14-34.17a8,8,0,0,0-2-11.23c-23.13-15.81-47.92-25.38-73.77-28.51V201a8,8,0,0,0-8-8ZM331.21,312.25c-8.42-3.41-12.59-6.29-14.65-8.29-3.37-3.29-5-7.86-5-14a18.56,18.56,0,0,1,6.76-14.8,30.84,30.84,0,0,1,12.9-6.43v43.48ZM371,433V386.71c9.78,3.66,14.62,6.84,17,9.06,3.78,3.53,5.62,8.36,5.62,14.76s-2.38,11.17-7.48,15.36A37.78,37.78,0,0,1,371,433Z"/></g></g></svg>