<svg xmlns="http://www.w3.org/2000/svg" viewBox="0 0 720 720"><defs><style>.cls-1{fill:#fff;}.cls-2{fill:none;}.cls-3{fill:#ffcd00;}.cls-4{fill:#333;}</style></defs><g id="Layer_2" data-name="Layer 2"><g id="schedule_icon" data-name="schedule icon"><circle class="cls-1" cx="360" cy="360" r="360"/><g id="schedule_icon-2" data-name="schedule_icon"><path class="cls-2" d="M152.59,564.56A24.35,24.35,0,0,0,176.88,589H543.12a24.35,24.35,0,0,0,24.29-24.41V253.43H152.59ZM467.66,305.69a17.55,17.55,0,0,1,17.49-17.58h35.72a17.55,17.55,0,0,1,17.49,17.58v35.89a17.55,17.55,0,0,1-17.49,17.58H485.15a17.56,17.56,0,0,1-17.49-17.58Zm0,95.07A17.7,17.7,0,0,1,485.29,383h35.44a17.7,17.7,0,0,1,17.63,17.72v35.62a17.7,17.7,0,0,1-17.63,17.72H485.29a17.7,17.7,0,0,1-17.63-17.72ZM372.9,305.83a17.7,17.7,0,0,1,17.64-17.72H426a17.7,17.7,0,0,1,17.64,17.72v35.6A17.7,17.7,0,0,1,426,359.16H390.54a17.7,17.7,0,0,1-17.64-17.73Zm0,94.68A17.44,17.44,0,0,1,390.28,383h35.94a17.44,17.44,0,0,1,17.38,17.47v36.12a17.44,17.44,0,0,1-17.38,17.47H390.28a17.44,17.44,0,0,1-17.38-17.47Zm0,96.36a17.7,17.7,0,0,1,17.64-17.73H426a17.7,17.7,0,0,1,17.64,17.73v35.6A17.71,17.71,0,0,1,426,550.2H390.54a17.71,17.71,0,0,1-17.64-17.73ZM278.14,305.62a17.49,17.49,0,0,1,17.43-17.51h35.84a17.49,17.49,0,0,1,17.43,17.51v36a17.5,17.5,0,0,1-17.43,17.52H295.57a17.5,17.5,0,0,1-17.43-17.52Zm0,95.08A17.64,17.64,0,0,1,295.71,383h35.56a17.64,17.64,0,0,1,17.57,17.66v35.74a17.64,17.64,0,0,1-17.57,17.66H295.71a17.64,17.64,0,0,1-17.57-17.66Zm0,96a17.5,17.5,0,0,1,17.43-17.52h35.84a17.5,17.5,0,0,1,17.43,17.52v36a17.5,17.5,0,0,1-17.43,17.52H295.57a17.5,17.5,0,0,1-17.43-17.52Zm-94.76-95.9A17.69,17.69,0,0,1,201,383h35.46a17.69,17.69,0,0,1,17.62,17.72v35.62a17.69,17.69,0,0,1-17.62,17.72H201a17.69,17.69,0,0,1-17.62-17.72Zm0,95.84a17.43,17.43,0,0,1,17.37-17.46h36a17.43,17.43,0,0,1,17.37,17.46v36.14a17.44,17.44,0,0,1-17.37,17.46h-36a17.44,17.44,0,0,1-17.37-17.46Z"/><path class="cls-3" d="M390.28,445.47h35.94a8.83,8.83,0,0,0,8.8-8.84V400.51a8.83,8.83,0,0,0-8.8-8.84H390.28a8.83,8.83,0,0,0-8.8,8.84v36.12A8.83,8.83,0,0,0,390.28,445.47Z"/><rect class="cls-4" x="260.2" y="148.31" width="206.84" height="8.63"/><path class="cls-4" d="M543.12,148.31H498.93v8.63h44.19a24.35,24.35,0,0,1,24.29,24.41V244.8H152.59V181.35a24.35,24.35,0,0,1,24.29-24.41h51.43v-8.63H176.88a33,33,0,0,0-32.88,33V564.56a33,33,0,0,0,32.88,33H543.12a33,33,0,0,0,32.88-33V181.35A33,33,0,0,0,543.12,148.31Zm24.29,416.25A24.35,24.35,0,0,1,543.12,589H176.88a24.35,24.35,0,0,1-24.29-24.41V253.43H567.41Z"/><path class="cls-4" d="M244.26,182.94a7.4,7.4,0,0,0,7.35-7.4V129.79a7.36,7.36,0,1,0-14.71,0v45.75A7.4,7.4,0,0,0,244.26,182.94Z"/><path class="cls-4" d="M483,182.94a7.4,7.4,0,0,0,7.36-7.4V129.79a7.36,7.36,0,1,0-14.72,0v45.75A7.4,7.4,0,0,0,483,182.94Z"/><path class="cls-4" d="M201,454.1h35.46a17.69,17.69,0,0,0,17.62-17.72V400.76A17.69,17.69,0,0,0,236.46,383H201a17.69,17.69,0,0,0-17.62,17.72v35.62A17.69,17.69,0,0,0,201,454.1Zm-9-53.34a9.08,9.08,0,0,1,9-9.09h35.46a9.08,9.08,0,0,1,9,9.09v35.62a9.08,9.08,0,0,1-9,9.09H201a9.08,9.08,0,0,1-9-9.09Z"/><path class="cls-4" d="M295.57,359.16h35.84a17.5,17.5,0,0,0,17.43-17.52v-36a17.49,17.49,0,0,0-17.43-17.51H295.57a17.49,17.49,0,0,0-17.43,17.51v36A17.5,17.5,0,0,0,295.57,359.16Zm-8.85-53.54a8.88,8.88,0,0,1,8.85-8.89h35.84a8.88,8.88,0,0,1,8.85,8.89v36a8.88,8.88,0,0,1-8.85,8.89H295.57a8.88,8.88,0,0,1-8.85-8.89Z"/><path class="cls-4" d="M295.71,454.1h35.56a17.64,17.64,0,0,0,17.57-17.66V400.7A17.64,17.64,0,0,0,331.27,383H295.71a17.64,17.64,0,0,0-17.57,17.66v35.74A17.64,17.64,0,0,0,295.71,454.1Zm-9-53.4a9,9,0,0,1,9-9h35.56a9,9,0,0,1,9,9v35.74a9,9,0,0,1-9,9H295.71a9,9,0,0,1-9-9Z"/><path class="cls-4" d="M390.54,359.16H426a17.7,17.7,0,0,0,17.64-17.73v-35.6A17.7,17.7,0,0,0,426,288.11H390.54a17.7,17.7,0,0,0-17.64,17.72v35.6A17.7,17.7,0,0,0,390.54,359.16Zm-9.06-53.33a9.09,9.09,0,0,1,9.06-9.1H426a9.09,9.09,0,0,1,9.06,9.1v35.6a9.09,9.09,0,0,1-9.06,9.1H390.54a9.09,9.09,0,0,1-9.06-9.1Z"/><path class="cls-4" d="M390.28,454.1h35.94a17.44,17.44,0,0,0,17.38-17.47V400.51A17.44,17.44,0,0,0,426.22,383H390.28a17.44,17.44,0,0,0-17.38,17.47v36.12A17.44,17.44,0,0,0,390.28,454.1Zm-8.8-53.59a8.83,8.83,0,0,1,8.8-8.84h35.94a8.83,8.83,0,0,1,8.8,8.84v36.12a8.83,8.83,0,0,1-8.8,8.84H390.28a8.83,8.83,0,0,1-8.8-8.84Z"/><path class="cls-4" d="M485.15,359.16h35.72a17.55,17.55,0,0,0,17.49-17.58V305.69a17.55,17.55,0,0,0-17.49-17.58H485.15a17.55,17.55,0,0,0-17.49,17.58v35.89A17.56,17.56,0,0,0,485.15,359.16Zm-8.91-53.47a9,9,0,0,1,8.91-9h35.72a9,9,0,0,1,8.91,9v35.89a8.94,8.94,0,0,1-8.91,8.95H485.15a8.94,8.94,0,0,1-8.91-8.95Z"/><path class="cls-4" d="M485.29,454.1h35.44a17.7,17.7,0,0,0,17.63-17.72V400.76A17.7,17.7,0,0,0,520.73,383H485.29a17.7,17.7,0,0,0-17.63,17.72v35.62A17.7,17.7,0,0,0,485.29,454.1Zm-9.05-53.34a9.08,9.08,0,0,1,9.05-9.09h35.44a9.08,9.08,0,0,1,9,9.09v35.62a9.08,9.08,0,0,1-9,9.09H485.29a9.08,9.08,0,0,1-9.05-9.09Z"/><path class="cls-4" d="M200.75,550.2h36a17.44,17.44,0,0,0,17.37-17.46V496.6a17.43,17.43,0,0,0-17.37-17.46h-36a17.43,17.43,0,0,0-17.37,17.46v36.14A17.44,17.44,0,0,0,200.75,550.2ZM192,496.6a8.82,8.82,0,0,1,8.79-8.83h36a8.82,8.82,0,0,1,8.79,8.83v36.14a8.82,8.82,0,0,1-8.79,8.83h-36a8.82,8.82,0,0,1-8.79-8.83Z"/><path class="cls-4" d="M295.57,550.2h35.84a17.5,17.5,0,0,0,17.43-17.52v-36a17.5,17.5,0,0,0-17.43-17.52H295.57a17.5,17.5,0,0,0-17.43,17.52v36A17.5,17.5,0,0,0,295.57,550.2Zm-8.85-53.54a8.88,8.88,0,0,1,8.85-8.89h35.84a8.88,8.88,0,0,1,8.85,8.89v36a8.88,8.88,0,0,1-8.85,8.89H295.57a8.88,8.88,0,0,1-8.85-8.89Z"/><path class="cls-4" d="M390.54,550.2H426a17.71,17.71,0,0,0,17.64-17.73v-35.6A17.7,17.7,0,0,0,426,479.14H390.54a17.7,17.7,0,0,0-17.64,17.73v35.6A17.71,17.71,0,0,0,390.54,550.2Zm-9.06-53.33a9.09,9.09,0,0,1,9.06-9.1H426a9.09,9.09,0,0,1,9.06,9.1v35.6a9.09,9.09,0,0,1-9.06,9.1H390.54a9.09,9.09,0,0,1-9.06-9.1Z"/></g></g></g></svg>