<svg xmlns="http://www.w3.org/2000/svg" xmlns:xlink="http://www.w3.org/1999/xlink" viewBox="0 0 720 720"><defs><style>.cls-1{fill:none;}.cls-2{isolation:isolate;}.cls-3{fill:#fff;}.cls-4{clip-path:url(#clip-path);}.cls-5{clip-path:url(#clip-path-3);}.cls-6{fill:#83142c;}.cls-10,.cls-6{fill-rule:evenodd;}.cls-7{clip-path:url(#clip-path-4);}.cls-8{fill:url(#radial-gradient);}.cls-9{fill:#f68e79;}.cls-10,.cls-17{fill:#811428;}.cls-11{clip-path:url(#clip-path-6);}.cls-12{fill:url(#linear-gradient);}.cls-13{clip-path:url(#clip-path-7);}.cls-14{fill:url(#linear-gradient-2);}.cls-15{mix-blend-mode:multiply;}.cls-16{clip-path:url(#clip-path-9);}.cls-18{fill:#333;}</style><clipPath id="clip-path"><rect class="cls-1" x="249.81" y="108" width="301.05" height="104.77"/></clipPath><clipPath id="clip-path-3"><rect class="cls-1" x="249.81" y="108" width="301.05" height="104.78"/></clipPath><clipPath id="clip-path-4"><path class="cls-1" d="M331,143.22l-.92,1-.2.2H254.37v63.77H547.11V144.4H471.58l-.2-.2-.92-1C451.83,123.74,427.07,113,400.74,113s-51.1,10.73-69.73,30.21"/></clipPath><radialGradient id="radial-gradient" cx="-2255.59" cy="1704.33" r="1" gradientTransform="matrix(151.07, 0, 0, -157.21, 341156.86, 268065.81)" gradientUnits="userSpaceOnUse"><stop offset="0" stop-color="#e6262a"/><stop offset="0.1" stop-color="#e6262a"/><stop offset="1" stop-color="#83142d"/></radialGradient><clipPath id="clip-path-6"><path class="cls-1" d="M412.46,131.41a64.91,64.91,0,0,0-10.8,8c2.28-.3,4.62-.54,7-.72a143.32,143.32,0,0,1,27.72.65,164,164,0,0,0-18.66.66,144.74,144.74,0,0,0-20.35,3.21c-4.88,4.22-10.14,8.26-17.63,11,22.78,5.86,34,.6,45-4.66,8.18-3.93,16.19-7.86,28.7-7.15h0a75.72,75.72,0,0,0-39.1-11l-1.84,0"/></clipPath><linearGradient id="linear-gradient" x1="-2210.73" y1="1724.98" x2="-2209.48" y2="1724.98" gradientTransform="matrix(59.3, -6.23, -6.23, -59.3, 142218.24, 88656.95)" gradientUnits="userSpaceOnUse"><stop offset="0" stop-color="#98ca3e"/><stop offset="0.22" stop-color="#98ca3e"/><stop offset="0.47" stop-color="#69c142"/><stop offset="0.95" stop-color="#03ae4b"/><stop offset="1" stop-color="#03ae4b"/></linearGradient><clipPath id="clip-path-7"><path class="cls-1" d="M379.07,123.69c-12.49,4.38-21.57,12.33-26.5,22.3a96,96,0,0,1,27.62-14.91,125.08,125.08,0,0,1,26-6.05,150.51,150.51,0,0,0-17.25,5.15c-15.61,5.72-28.72,13.72-39.11,23.47C396.5,157.59,393.51,129.48,423,124c0,0,0,0,0,0a70.45,70.45,0,0,0-22.69-3.77,64.48,64.48,0,0,0-21.16,3.48"/></clipPath><linearGradient id="linear-gradient-2" x1="-2211.55" y1="1724.69" x2="-2210.3" y2="1724.69" gradientTransform="matrix(60.26, -6.33, -6.33, -60.26, 144540.46, 90066.03)" xlink:href="#linear-gradient"/><clipPath id="clip-path-9"><rect class="cls-1" x="267.19" y="157.89" width="269.64" height="41.4"/></clipPath></defs><g class="cls-2"><g id="Layer_2" data-name="Layer 2"><g id="shop_icon" data-name="shop icon"><circle class="cls-3" cx="360" cy="360" r="360"/><g id="shop_icon-2" data-name="shop_icon"><g id="NM_NSYNC_logo_-_large" data-name="NM NSYNC logo - large"><g class="cls-4"><g class="cls-4"><g class="cls-5"><path class="cls-6" d="M550.86,140v72.74h-301V140h77c18.91-19.79,45-32,73.9-32s55,12.24,73.9,32Z"/></g><g class="cls-7"><rect class="cls-8" x="254.37" y="113.01" width="292.74" height="95.16"/></g><g class="cls-5"><path class="cls-9" d="M547.11,143.47H471.94l-.85-.9c-18.79-19.66-43.79-30.49-70.35-30.49s-51.55,10.83-70.36,30.49l-.85.9h-76v65.62H548V143.47Zm-216.59,1.59.2-.21.93-1c18.46-19.3,43-29.95,69.09-29.95s50.63,10.65,69.08,29.95l.94,1,.18.21.26.27h75v61.91h-291V145.33h75Z"/><path class="cls-10" d="M455.08,145.15c-11-6.72-28.91-13.24-43.1-13.73a41.11,41.11,0,0,1,12.62-4.55l0,0c-13.83-4.67-29.65-5.13-43.86-.15-12.51,4.42-21.59,12.4-26.54,22.39,1.72,2.62,4.84,3.81,15.45,0,8.42-3,29.4-20,38.21-21.15a147.1,147.1,0,0,0-17.26,5.18c-15.63,5.79-28.73,13.82-39.15,23.62,10.08.8,17.84.13,24.12-1.48,44.4,15.06,50.41-11.69,79.57-10.11l0,0"/></g><g class="cls-11"><polygon class="cls-12" points="376.87 131.7 452.63 123.42 456.3 159.76 380.54 168.04 376.87 131.7"/></g><g class="cls-13"><polygon class="cls-14" points="346.09 120.61 422.15 112.3 426.68 157.18 350.62 165.5 346.09 120.61"/></g><g class="cls-5"><path class="cls-3" d="M537.18,192.46a3.43,3.43,0,1,1-3.29,3.43,3.37,3.37,0,0,1,3.29-3.43m0,6.1a2.69,2.69,0,1,0-2.35-2.67,2.45,2.45,0,0,0,2.35,2.67M535.86,194h1.38c.92,0,1.45.29,1.45,1.14a.93.93,0,0,1-1,1l1,1.65h-.81l-.87-1.61h-.37v1.61h-.78Zm1.42,1.57c.37,0,.63-.07.63-.5s-.4-.44-.72-.44h-.55v.94Z"/><g class="cls-15"><g class="cls-16"><path class="cls-17" d="M482.81,197.45a18.7,18.7,0,0,1-6.82,1.68c-2.07,0-2.71-1.47-2.62-3.3-1.92,1.29-4.68,3.3-7.53,3.3-4.57,0-6-3.8-4.93-8.06.8-3.13,2.56-5.48,6.68-6.94,3.38-1.19,7.1-2.35,9.68-3.87l.74-2.92c.94-3.63-.44-4.63-1.94-4.63s-3.43,1-5.82,5.53c-.64,1.23-1.36,2-2.34,2s-3.32-.94-2.73-3.2c.89-3.46,5.87-6.7,12.14-6.7,7.81,0,7.28,4.47,6.39,7.95l-3.31,12.88c-.87,3.41-.24,4.2.4,4.42a5.4,5.4,0,0,0,2.25.18Zm-6.19-14.67c-1.25.67-3.2,1.4-5.2,2.41a6.78,6.78,0,0,0-4,5c-.79,3.13.25,5.08,2.44,5.08,1.46,0,3.76-.94,4.7-4.47Z"/><path class="cls-17" d="M533.52,190.85c-2.71,4.75-6.56,8.44-12,8.44-7.68,0-9.58-6.59-7.5-14.71a22.63,22.63,0,0,1,5.34-10.19,14.16,14.16,0,0,1,9.68-4.63c6-.22,7.33,4.67,7.74,7,.2,1.19-.65,2.53-2.68,3.42l-14,6.51c-.91,4.21-.62,8.5,4.24,8.5,3.35,0,5.63-2.12,7.83-5.35Zm-4.89-10.74c1.65-.65,2.08-1,2.11-3.41,0-2.62-.64-4.21-2.52-4.21-4.53,0-6.6,7.79-7.47,11.21Z"/><path class="cls-17" d="M507.18,194.52l9.33-36.63-9.5,1.6-.49,1.9,1.65.21c.88.18,1.11.55.54,2.76L507,171a9.3,9.3,0,0,0-4-.78,14.62,14.62,0,0,0-9.91,3.71,22.28,22.28,0,0,0-6.36,11.27c-2.13,8.3,0,13.84,6,13.92,2.51,0,5.05-1.47,8-3.81l-.81,3.15v0h9.36l.5-2c-2.44-.15-3-.35-2.65-2m-13.59-10.26c2-7.89,5.43-11.67,8.83-11.67a3,3,0,0,1,3.11,2.73,8.71,8.71,0,0,1-.46,3.24l-2.83,11.08a11.81,11.81,0,0,1-.93,2.51,5.47,5.47,0,0,1-4.94,3.17c-3.54,0-4.57-4.07-2.78-11.06"/><path class="cls-17" d="M455.76,193.19l6.58-25.87c1.13-4.65,2.08-5.46,4.63-5.59l.45-2H455.8l-15.46,27.8-.06.32-2.39-28.12H425.44l-.51,2.07c1.9,0,4.5.67,2.92,5.57l-6.7,24.87c-.72,3-2.16,4.16-5.1,4.38l-.47,1.95h7.7l8.82-33.36h.14l2.66,33H438l18.42-33.06h.13l-8.38,33.37h9.37l.51-1.95c-2.84-.23-3.07-.39-2.31-3.37"/><path class="cls-17" d="M350.51,168.69l-9.13,4.24-4.29,17.19c-1,3.8-.16,5.33,1.53,5.33a8.09,8.09,0,0,0,3-.62l.09,1.51c-2.57,1.62-5.55,2.84-7.64,2.84-2.26,0-5.12-1.61-3.76-6.94L334.48,176l-3.35,1.53.78-3c6.9-3.27,9.52-10.49,9.52-10.49h2.25l-1.53,5.88,9.11-4.27Z"/><path class="cls-17" d="M366.18,193.65l5.88-23.36-6.49,1.16-4.39,17.38a12.42,12.42,0,0,1-1.35,3.25,6.74,6.74,0,0,1-5.28,3.26c-2.41,0-3.6-1.91-2.46-6.28l4.71-18.76-10.16,4.16-.41,1.78,1.59.28c.9.16,1.09.54.55,2.68l-2.92,11.59c-1.69,6.49,1.16,8.39,4.56,8.39,4,0,7.71-2.77,9.59-4l-.8,3.34h9.31l.49-2c-2.8-.17-3.06-.38-2.42-2.91"/><path class="cls-17" d="M412.19,190.86c-2.71,4.76-6.55,8.43-12,8.43-7.68,0-9.58-6.58-7.49-14.71a23,23,0,0,1,5.3-10.19,14.28,14.28,0,0,1,9.71-4.62c6-.22,7.33,4.67,7.75,7,.19,1.17-.67,2.51-2.7,3.41l-14,6.51c-.89,4.21-.62,8.51,4.22,8.51,3.37,0,5.65-2.12,7.84-5.37Zm-4.88-10.74c1.62-.65,2.08-1,2.1-3.42,0-2.62-.64-4.21-2.52-4.21-4.56,0-6.6,7.81-7.47,11.21Z"/><path class="cls-17" d="M325.57,197.46a18.69,18.69,0,0,1-6.84,1.67c-2.07,0-2.72-1.63-2.62-3.28-1.92,1.27-4.67,3.28-7.53,3.28-4.57,0-6.05-3.79-4.94-8.06.8-3.12,2.57-5.48,6.69-6.93,3.38-1.19,7.1-2.36,9.67-3.88l.74-2.91c.95-3.62-.43-4.64-1.93-4.64s-3.43,1-5.8,5.56c-.65,1.22-1.36,2-2.35,2s-3.3-.94-2.74-3.18c.89-3.48,5.89-6.72,12.14-6.72,7.82,0,7.28,4.5,6.39,7.95l-3.3,12.88c-.87,3.41-.23,4.21.41,4.43a5.14,5.14,0,0,0,2.24.17Zm-6.21-14.68c-1.24.68-3.2,1.41-5.19,2.43a6.72,6.72,0,0,0-4,5c-.79,3.14.25,5.1,2.44,5.1,1.44,0,3.75-1,4.72-4.49Z"/><path class="cls-17" d="M275.77,159.79l-.5,2c3.34.3,4.37,1.82,3.28,6.41l-5.73,22.67c-1.16,4.66-2.25,5.48-5.12,5.61l-.51,2h10.92l.48-2c-2.5-.1-3.6-.41-2.25-5.61l5.33-21.32L291,198.52h6l7.89-31.2c1.15-4.64,2.58-5.49,5.12-5.62l.52-1.94h-7.64l-7.11,28.33-.24,1.15-9.23-29.45Z"/><path class="cls-17" d="M393.18,169.39c-3.83.23-7.05,3.62-9.64,6.31l1.25-5.15-9.43,1.65-.49,1.83,1.62.23c.79.15,1.06.49.73,2.08l-5.58,22.15h9.25l.5-2c-2.78-.17-3.05-.39-2.42-2.89l3.64-14.3c1.46-1.79,3.6-4.45,5.37-4.56s2,1.37,3.9,1.27a4.47,4.47,0,0,0,3.77-3.47c.52-2.06-.68-3.32-2.47-3.2"/></g></g><path class="cls-3" d="M481.3,195.48a18.8,18.8,0,0,1-6.83,1.68c-2.07,0-2.7-1.49-2.62-3.31-1.92,1.3-4.67,3.31-7.53,3.31-4.56,0-6-3.81-4.92-8.06.8-3.13,2.57-5.49,6.67-6.95,3.38-1.19,7.1-2.35,9.68-3.87l.74-2.91c.94-3.64-.43-4.63-1.93-4.63s-3.45,1-5.82,5.54c-.65,1.23-1.37,2-2.34,2s-3.33-.94-2.73-3.19c.88-3.45,5.87-6.71,12.14-6.71,7.8,0,7.26,4.48,6.38,8l-3.31,12.88c-.87,3.42-.23,4.2.42,4.43a5.45,5.45,0,0,0,2.24.17Zm-6.2-14.68c-1.24.68-3.2,1.41-5.2,2.41a6.78,6.78,0,0,0-4,5c-.79,3.13.24,5.09,2.44,5.09,1.45,0,3.75-1,4.69-4.47Z"/><path class="cls-3" d="M532,188.87c-2.72,4.77-6.56,8.45-12,8.45-7.67,0-9.57-6.58-7.5-14.72a22.87,22.87,0,0,1,5.33-10.19,14.29,14.29,0,0,1,9.7-4.63c6-.22,7.33,4.69,7.74,7,.2,1.18-.66,2.52-2.69,3.41l-14,6.52c-.9,4.21-.61,8.5,4.24,8.5,3.37,0,5.64-2.12,7.83-5.36Zm-4.88-10.74c1.64-.64,2.08-1,2.1-3.41,0-2.62-.63-4.2-2.52-4.2-4.53,0-6.59,7.78-7.46,11.21Z"/><path class="cls-3" d="M505.66,192.54,515,155.91l-9.52,1.6-.48,1.92,1.65.19c.89.18,1.11.57.55,2.77L505.48,169a9.06,9.06,0,0,0-4-.78,14.65,14.65,0,0,0-9.9,3.71,22.27,22.27,0,0,0-6.37,11.27c-2.12,8.3,0,13.84,6,13.92,2.51,0,5.06-1.49,8-3.81l-.83,3.15v.05h9.38l.5-2c-2.45-.16-3-.35-2.66-2.05m-13.59-10.26c2-7.88,5.43-11.67,8.84-11.67a3,3,0,0,1,3.1,2.73,8.69,8.69,0,0,1-.45,3.25l-2.84,11.08a11.21,11.21,0,0,1-.94,2.51,5.44,5.44,0,0,1-4.94,3.17c-3.53,0-4.56-4.08-2.77-11.07"/><path class="cls-3" d="M454.25,191.22l6.57-25.87c1.15-4.65,2.09-5.46,4.63-5.59l.47-2H454.28l-15.45,27.8-.06.32-2.4-28.12H423.93l-.52,2.07c1.9,0,4.5.67,2.94,5.56l-6.7,24.89c-.73,3-2.17,4.15-5.11,4.38l-.48,1.95h7.72l8.8-33.37h.13l2.67,33h3.13l18.42-33.05h.13l-8.37,33.36H456l.52-1.94c-2.84-.24-3.08-.4-2.31-3.37"/><path class="cls-3" d="M349,166.71,339.87,171l-4.29,17.19c-1,3.81-.16,5.33,1.52,5.33a8,8,0,0,0,3.06-.63l.07,1.51c-2.56,1.62-5.54,2.85-7.64,2.85s-5.12-1.61-3.75-6.94L333,174l-3.36,1.54.77-3c6.91-3.27,9.53-10.5,9.53-10.5h2.25l-1.53,5.89,9.11-4.28Z"/><path class="cls-3" d="M364.68,191.68l5.87-23.37-6.5,1.16-4.38,17.39a12.49,12.49,0,0,1-1.35,3.24,6.76,6.76,0,0,1-5.27,3.27c-2.43,0-3.59-1.91-2.48-6.29l4.72-18.75-10.16,4.16-.41,1.77,1.6.29c.89.15,1.08.54.54,2.69l-2.93,11.58c-1.68,6.49,1.17,8.39,4.57,8.39,4,0,7.71-2.78,9.59-4l-.8,3.35h9.3l.5-2c-2.8-.18-3.07-.39-2.41-2.91"/><path class="cls-3" d="M410.68,188.89c-2.72,4.75-6.56,8.43-12,8.43-7.68,0-9.58-6.58-7.5-14.72a23.16,23.16,0,0,1,5.32-10.19,14.18,14.18,0,0,1,9.7-4.61c6-.24,7.32,4.67,7.74,7,.2,1.16-.64,2.51-2.69,3.4l-14,6.51c-.89,4.22-.62,8.51,4.22,8.51,3.38,0,5.65-2.13,7.84-5.37Zm-4.88-10.75c1.62-.65,2.08-1,2.1-3.42,0-2.62-.64-4.2-2.52-4.2-4.55,0-6.59,7.8-7.46,11.22Z"/><path class="cls-3" d="M324.05,195.49a18.74,18.74,0,0,1-6.83,1.67c-2.07,0-2.72-1.63-2.62-3.29-1.92,1.28-4.67,3.29-7.54,3.29-4.57,0-6-3.79-4.94-8.06.82-3.13,2.58-5.49,6.7-6.93,3.38-1.19,7.1-2.37,9.67-3.88l.75-2.91c.95-3.63-.45-4.64-1.94-4.64s-3.43,1-5.8,5.55c-.65,1.23-1.36,2-2.35,2s-3.3-.95-2.73-3.19c.88-3.46,5.88-6.71,12.14-6.71,7.81,0,7.27,4.49,6.38,7.94l-3.3,12.88c-.87,3.42-.24,4.22.41,4.43a5.15,5.15,0,0,0,2.24.17Zm-6.2-14.68c-1.24.67-3.2,1.42-5.2,2.42a6.71,6.71,0,0,0-4,5c-.79,3.14.25,5.11,2.44,5.11,1.44,0,3.75-1,4.71-4.5Z"/><path class="cls-3" d="M274.26,157.81l-.51,2c3.35.32,4.38,1.82,3.29,6.42l-5.73,22.68c-1.15,4.64-2.25,5.47-5.12,5.61l-.51,1.94h10.93l.47-1.94c-2.49-.12-3.6-.42-2.26-5.61l5.33-21.32,9.34,28.93h5.95l7.9-31.2c1.15-4.65,2.58-5.48,5.12-5.61l.51-2h-7.63l-7.11,28.33-.24,1.14s-9.09-29-9.23-29.45Z"/><path class="cls-3" d="M391.66,167.42c-3.82.22-7,3.62-9.64,6.31l1.27-5.16-9.44,1.65-.49,1.84,1.62.23c.79.15,1.06.5.73,2.08l-5.59,22.14h9.26l.5-1.95c-2.78-.17-3.05-.39-2.41-2.88l3.63-14.3c1.46-1.79,3.59-4.46,5.37-4.57s2,1.38,3.91,1.28a4.46,4.46,0,0,0,3.75-3.48c.53-2.06-.68-3.31-2.47-3.19"/></g></g></g></g><path class="cls-18" d="M611.09,240.47a4.39,4.39,0,0,0-3.53-1.83h-403L191.19,175H112.44a4.63,4.63,0,0,0,0,9.25H184l19.44,92.4,7.42,35.26h0v0l14.91,70.86v0l.32,1.52,13.2,62.7h0l16.83,80H528.74a4.63,4.63,0,0,0,0-9.25H263.33l-14.12-67.09H553.33a4.48,4.48,0,0,0,4.29-3.38L611.84,244.5A4.77,4.77,0,0,0,611.09,240.47Zm-404.56,7.42H268l12.37,58.47h-61.5Zm84.87,67.72h67.36l13.05,61.65H304.44Zm76.47,0h69.52l13.05,61.65H380.91Zm78.63,0H514l13,61.65H459.54Zm-164.2,0,13,61.65H233.76l-13-61.65Zm217.34-67.72L512,306.36H444.54l-12.37-58.47Zm-76.57,0,12.37,58.47H365.91l-12.37-58.47Zm-78.63,0,12.37,58.47H289.45l-12.38-58.47ZM236.19,388.8l-.49-2.29h61.6l11.62,54.93H247.27ZM318,441.44,306.4,386.51h67.36l11.62,54.93Zm76.47,0-11.63-54.93h69.53L464,441.44Zm78.63,0L461.5,386.51H529l11.62,54.93Zm76.84,0h-.27l-11.63-54.93h26.58Zm17.16-64.18h-31l-13-61.65H583.6Zm19-70.9h-65l-12.37-58.47h93Z"/><path class="cls-18" d="M314.45,553.68c-15.45,0-28,13.08-28,29.16S299,612,314.45,612s28-13.08,28-29.16S329.9,553.68,314.45,553.68Zm-19.13,29.16c0-11,8.58-19.91,19.13-19.91s19.13,8.94,19.13,19.91-8.58,19.91-19.13,19.91S295.32,593.82,295.32,582.84Z"/><path class="cls-18" d="M472.87,553.68c-15.45,0-28,13.08-28,29.16s12.57,29.16,28,29.16,28-13.08,28-29.16S488.32,553.68,472.87,553.68Zm0,49.07c-10.55,0-19.13-8.93-19.13-19.91s8.58-19.91,19.13-19.91S492,571.87,492,582.84,483.42,602.75,472.87,602.75Z"/></g></g></g></g></svg>